<svg width="1200" height="35" viewBox="0 0 1200 35" fill="none" xmlns="http://www.w3.org/2000/svg">
<path d="M2.45081 28.1875H23.8258V6.8125H2.45081V28.1875ZM19.7117 15.4433H15.195V10.9267H19.7117V15.4433ZM6.56414 10.9267H11.0833V19.5567H19.7117V24.0733H6.56414V10.9267ZM37.745 6.8125C35.6312 6.8125 33.5648 7.43932 31.8073 8.61367C30.0497 9.78803 28.6799 11.4572 27.871 13.4101C27.0621 15.363 26.8505 17.5118 27.2628 19.585C27.6752 21.6582 28.6931 23.5625 30.1877 25.0572C31.6824 26.5519 33.5867 27.5697 35.6599 27.9822C37.7332 28.3945 39.882 28.1829 41.8349 27.374C43.7878 26.5651 45.4569 25.1952 46.6313 23.4377C47.8057 21.6801 48.4325 19.6137 48.4325 17.5C48.4292 14.6665 47.3021 11.95 45.2985 9.94646C43.2949 7.94288 40.5785 6.81581 37.745 6.8125ZM37.745 24.0733C36.4449 24.0733 35.174 23.6878 34.093 22.9655C33.0121 22.2432 32.1695 21.2167 31.672 20.0155C31.1745 18.8144 31.0443 17.4927 31.2979 16.2176C31.5516 14.9425 32.1777 13.7713 33.0969 12.852C34.0162 11.9327 35.1875 11.3066 36.4626 11.053C37.7377 10.7993 39.0593 10.9295 40.2605 11.427C41.4616 11.9246 42.4882 12.7671 43.2105 13.8481C43.9328 14.929 44.3183 16.1999 44.3183 17.5C44.3157 19.2426 43.6222 20.913 42.3901 22.1452C41.1579 23.3773 39.4875 24.0707 37.745 24.0733ZM86.6775 6.8125C84.5633 6.81234 82.4972 7.43901 80.7396 8.61327C78.9819 9.78752 77.612 11.4566 76.8029 13.4095C75.9939 15.3623 75.7821 17.5113 76.1944 19.5845C76.6067 21.6577 77.6245 23.5622 79.1192 25.0569C80.6137 26.5517 82.5181 27.5697 84.5917 27.9821C86.6642 28.3945 88.8133 28.1829 90.7667 27.3741C92.7192 26.5652 94.3883 25.1953 95.5625 23.4377C96.7375 21.6802 97.3642 19.6138 97.3642 17.5C97.3608 14.6667 96.2342 11.9503 94.2308 9.94675C92.2275 7.94319 89.5108 6.81603 86.6775 6.8125ZM86.6775 24.0733C85.3775 24.0735 84.1067 23.6881 83.0253 22.9659C81.9442 22.2437 81.1016 21.2172 80.6039 20.0161C80.1062 18.815 79.976 17.4932 80.2295 16.2181C80.4831 14.943 81.1091 13.7717 82.0283 12.8523C82.9476 11.9329 84.1192 11.3067 85.3942 11.053C86.6692 10.7993 87.9908 10.9295 89.1917 11.427C90.3933 11.9244 91.42 12.767 92.1425 13.848C92.8642 14.929 93.25 16.1999 93.25 17.5C93.2475 19.2424 92.5542 20.9127 91.3217 22.1448C90.09 23.377 88.42 24.0705 86.6775 24.0733ZM62.2108 6.8125C60.097 6.8125 58.0307 7.43932 56.2732 8.61367C54.5156 9.78803 53.1457 11.4572 52.3368 13.4101C51.5279 15.363 51.3163 17.5118 51.7287 19.585C52.1411 21.6582 53.1589 23.5625 54.6536 25.0572C56.1482 26.5519 58.0526 27.5697 60.1257 27.9822C62.1989 28.3945 64.3478 28.1829 66.3007 27.374C68.2537 26.5651 69.9227 25.1952 71.0972 23.4377C72.2715 21.6801 72.8983 19.6137 72.8983 17.5C72.895 14.6665 71.7679 11.95 69.7643 9.94646C67.7607 7.94288 65.0443 6.81581 62.2108 6.8125ZM62.2108 24.0733C60.9995 24.0739 59.8117 23.7398 58.7782 23.1079C57.7449 22.476 56.9062 21.5709 56.3547 20.4924C55.8034 19.4139 55.5607 18.204 55.6535 16.9963C55.7463 15.7886 56.171 14.63 56.8807 13.6484C57.5905 12.6669 58.5577 11.9005 59.6754 11.4339C60.7932 10.9673 62.0182 10.8187 63.2152 11.0044C64.4122 11.1901 65.5345 11.7029 66.4584 12.4862C67.3823 13.2695 68.0718 14.2929 68.4508 15.4433H62.2108V19.5567H68.4508C68.0167 20.8694 67.1804 22.0123 66.0603 22.8229C64.9403 23.6337 63.5935 24.0711 62.2108 24.0733Z" fill="#DAC5A7"/>
<path d="M250.161 15.871C249.782 16.2523 249.492 16.7125 249.311 17.2187C249.131 17.725 249.064 18.2649 249.115 18.8L249.097 18.782C249.151 19.4119 249.066 20.0457 248.849 20.6394C248.631 21.233 248.287 21.7721 247.841 22.2191C247.394 22.666 246.854 23.0101 246.261 23.2271C245.667 23.4442 245.033 23.5292 244.403 23.476L244.421 23.494C243.668 23.4239 242.911 23.5878 242.254 23.9635C241.598 24.3392 241.073 24.9083 240.751 25.5933C240.43 26.2783 240.327 27.0457 240.458 27.7911C240.588 28.5364 240.946 29.2233 241.481 29.7581C242.016 30.2929 242.704 30.6496 243.449 30.7795C244.194 30.9095 244.962 30.8063 245.646 30.4842C246.331 30.162 246.9 29.6366 247.275 28.9794C247.65 28.3222 247.813 27.5654 247.742 26.812L247.761 26.83C247.708 26.2002 247.793 25.5663 248.01 24.9726C248.227 24.379 248.571 23.8399 249.018 23.3929C249.465 22.946 250.004 22.6019 250.598 22.3849C251.192 22.1678 251.826 22.0828 252.455 22.136L252.436 22.118C253.052 22.1733 253.671 22.0724 254.237 21.8246C254.803 21.5768 255.298 21.1901 255.675 20.7004C256.051 20.2107 256.299 19.6337 256.393 19.0231C256.488 18.4124 256.426 17.7878 256.215 17.207C256.004 16.6263 255.65 16.1083 255.185 15.701C254.72 15.2937 254.16 15.0103 253.557 14.8771C252.953 14.7439 252.326 14.7651 251.733 14.9388C251.14 15.1126 250.601 15.4332 250.164 15.871H250.161Z" fill="#DAC5A7"/>
<path d="M242.784 21.136L242.765 21.118C243.301 21.1719 243.841 21.1062 244.348 20.9256C244.855 20.745 245.315 20.4541 245.696 20.0738C246.077 19.6935 246.368 19.2333 246.549 18.7266C246.73 18.2199 246.796 17.6794 246.742 17.144L246.761 17.162C246.708 16.5321 246.793 15.8983 247.01 15.3046C247.227 14.711 247.571 14.1719 248.018 13.7249C248.465 13.278 249.004 12.9339 249.598 12.7169C250.192 12.4998 250.826 12.4148 251.455 12.468L251.436 12.45C252.19 12.5208 252.947 12.3574 253.604 11.9821C254.261 11.6068 254.787 11.038 255.109 10.3531C255.431 9.66824 255.534 8.90071 255.403 8.1552C255.273 7.40969 254.916 6.72251 254.381 6.18737C253.846 5.65224 253.159 5.2952 252.413 5.16498C251.668 5.03475 250.9 5.13766 250.215 5.45968C249.53 5.78169 248.962 6.30714 248.586 6.96435C248.211 7.62155 248.048 8.37852 248.118 9.132L248.1 9.113C248.154 9.74289 248.069 10.3768 247.852 10.9705C247.635 11.5643 247.291 12.1035 246.844 12.5505C246.397 12.9974 245.858 13.3415 245.264 13.5585C244.67 13.7755 244.036 13.8603 243.406 13.807L243.424 13.826C242.889 13.7721 242.348 13.8378 241.842 14.0184C241.335 14.1989 240.874 14.4899 240.494 14.8702C240.113 15.2505 239.822 15.7107 239.641 16.2174C239.46 16.7241 239.394 17.2646 239.447 17.8L239.429 17.782C239.482 18.4118 239.397 19.0456 239.18 19.6392C238.963 20.2327 238.619 20.7718 238.172 21.2187C237.725 21.6656 237.186 22.0096 236.593 22.2268C235.999 22.4439 235.365 22.529 234.735 22.476L234.753 22.494C234 22.4232 233.243 22.5866 232.586 22.9619C231.929 23.3372 231.403 23.906 231.081 24.5909C230.759 25.2758 230.656 26.0433 230.786 26.7888C230.917 27.5343 231.274 28.2215 231.809 28.7566C232.344 29.2918 233.031 29.6488 233.777 29.779C234.522 29.9092 235.29 29.8063 235.975 29.4843C236.659 29.1623 237.228 28.6369 237.604 27.9797C237.979 27.3224 238.142 26.5655 238.071 25.812L238.09 25.83C238.037 25.2001 238.122 24.5663 238.339 23.9726C238.556 23.379 238.9 22.8399 239.347 22.3929C239.794 21.946 240.333 21.6019 240.927 21.3849C241.521 21.1678 242.155 21.0828 242.784 21.136Z" fill="#DAC5A7"/>
<path d="M236.082 19.1289C236.461 18.7477 236.752 18.2875 236.932 17.7812C237.113 17.2749 237.18 16.7349 237.127 16.1999L237.146 16.2179C237.093 15.5879 237.178 14.9538 237.395 14.36C237.613 13.7662 237.957 13.227 238.404 12.78C238.851 12.3331 239.391 11.9891 239.984 11.7721C240.578 11.5552 241.212 11.4705 241.842 11.5239L241.823 11.5059C242.577 11.5765 243.333 11.413 243.99 11.0378C244.647 10.6625 245.172 10.0938 245.494 9.40917C245.816 8.72451 245.919 7.95726 245.789 7.21203C245.658 6.4668 245.301 5.77988 244.766 5.24494C244.232 4.71 243.545 4.35308 242.799 4.22286C242.054 4.09263 241.287 4.19545 240.602 4.51727C239.918 4.83909 239.349 5.36426 238.974 6.02116C238.598 6.67806 238.435 7.43472 238.505 8.18794L238.487 8.16994C238.541 8.79979 238.456 9.43366 238.239 10.0273C238.021 10.6209 237.677 11.16 237.231 11.607C236.784 12.054 236.244 12.398 235.651 12.615C235.057 12.8321 234.423 12.9171 233.793 12.8639L233.811 12.8819C233.196 12.8267 232.577 12.9278 232.011 13.1757C231.445 13.4236 230.95 13.8104 230.574 14.3002C230.197 14.7899 229.95 15.3669 229.856 15.9775C229.761 16.5882 229.823 17.2128 230.034 17.7934C230.245 18.3741 230.6 18.892 231.064 19.2992C231.529 19.7065 232.089 19.9898 232.692 20.123C233.296 20.2561 233.923 20.2348 234.516 20.0611C235.109 19.8873 235.648 19.5667 236.084 19.1289H236.082Z" fill="#DAC5A7"/>
<path d="M267.059 9.15503H270.029V23.608H267.059V9.15503Z" fill="#DAC5A7"/>
<path d="M271.711 18.659C271.707 17.6204 272.012 16.6038 272.586 15.7382C273.16 14.8726 273.978 14.1968 274.936 13.7965C275.894 13.3961 276.95 13.2892 277.969 13.4893C278.988 13.6894 279.925 14.1874 280.661 14.9204C281.397 15.6533 281.899 16.5882 282.103 17.6066C282.307 18.625 282.205 19.6811 281.808 20.6411C281.412 21.601 280.739 22.4218 279.876 22.9992C279.012 23.5767 277.997 23.885 276.958 23.885C276.269 23.8929 275.585 23.7632 274.946 23.5036C274.307 23.244 273.727 22.8597 273.238 22.3732C272.75 21.8866 272.363 21.3075 272.101 20.6698C271.839 20.0321 271.706 19.3485 271.711 18.659ZM279.235 18.659C279.223 18.2113 279.079 17.7772 278.821 17.4109C278.563 17.0447 278.203 16.7625 277.786 16.5998C277.369 16.437 276.913 16.4008 276.475 16.4958C276.038 16.5908 275.638 16.8126 275.325 17.1337C275.013 17.4547 274.802 17.8607 274.72 18.3009C274.637 18.741 274.686 19.1958 274.86 19.6084C275.034 20.021 275.326 20.373 275.699 20.6205C276.073 20.868 276.511 21 276.958 21C277.265 21.0082 277.57 20.9527 277.855 20.8371C278.139 20.7215 278.396 20.5483 278.61 20.3284C278.824 20.1084 278.99 19.8465 279.097 19.5592C279.205 19.2719 279.252 18.9654 279.235 18.659Z" fill="#DAC5A7"/>
<path d="M294.042 13.7091V23.1091C294.042 26.4351 291.448 27.8411 288.815 27.8411C287.888 27.9105 286.96 27.7232 286.132 27.2999C285.305 26.8765 284.61 26.2334 284.123 25.4411L286.657 23.9761C286.862 24.3891 287.188 24.7298 287.591 24.9527C287.994 25.1755 288.456 25.2699 288.914 25.2231C289.207 25.2637 289.506 25.2379 289.788 25.1476C290.069 25.0573 290.327 24.9048 290.542 24.7015C290.757 24.4981 290.923 24.2491 291.028 23.9727C291.134 23.6964 291.176 23.3999 291.151 23.1051V22.2001C290.804 22.6256 290.361 22.9637 289.859 23.1872C289.357 23.4107 288.809 23.5134 288.26 23.4871C286.954 23.4459 285.715 22.8981 284.806 21.9595C283.897 21.021 283.388 19.7654 283.388 18.4586C283.388 17.1518 283.897 15.8962 284.806 14.9577C285.715 14.0191 286.954 13.4713 288.26 13.4301C288.809 13.4038 289.357 13.5065 289.859 13.73C290.361 13.9535 290.804 14.2916 291.151 14.7171V13.7071L294.042 13.7091ZM291.152 18.4601C291.172 17.9815 291.049 17.5078 290.797 17.1001C290.546 16.6923 290.178 16.3692 289.741 16.1723C289.304 15.9753 288.819 15.9136 288.347 15.995C287.875 16.0764 287.438 16.2972 287.092 16.6291C286.747 16.9609 286.508 17.3885 286.408 17.8569C286.307 18.3253 286.349 18.8131 286.529 19.2574C286.708 19.7017 287.016 20.0823 287.413 20.3501C287.81 20.6179 288.278 20.7607 288.757 20.7601C289.07 20.7819 289.383 20.7381 289.677 20.6315C289.971 20.5249 290.239 20.3578 290.465 20.1412C290.691 19.9245 290.868 19.663 290.987 19.3734C291.105 19.0839 291.162 18.7728 291.152 18.4601Z" fill="#DAC5A7"/>
<path d="M295.724 18.659C295.72 17.6204 296.024 16.6038 296.599 15.7382C297.173 14.8726 297.991 14.1968 298.949 13.7965C299.907 13.3961 300.963 13.2892 301.982 13.4893C303.001 13.6894 303.938 14.1874 304.674 14.9204C305.41 15.6533 305.912 16.5882 306.116 17.6066C306.32 18.625 306.218 19.6811 305.821 20.6411C305.425 21.601 304.752 22.4218 303.889 22.9992C303.025 23.5767 302.01 23.885 300.971 23.885C300.282 23.8929 299.598 23.7632 298.959 23.5036C298.32 23.244 297.74 22.8597 297.251 22.3732C296.763 21.8866 296.376 21.3075 296.114 20.6698C295.852 20.0321 295.719 19.3485 295.724 18.659ZM303.248 18.659C303.236 18.2113 303.092 17.7772 302.834 17.4109C302.576 17.0447 302.216 16.7625 301.799 16.5998C301.382 16.437 300.926 16.4008 300.488 16.4958C300.051 16.5908 299.651 16.8126 299.338 17.1337C299.026 17.4547 298.815 17.8607 298.733 18.3009C298.65 18.741 298.699 19.1958 298.873 19.6084C299.047 20.021 299.339 20.373 299.712 20.6205C300.086 20.868 300.524 21 300.971 21C301.278 21.0082 301.583 20.9527 301.867 20.8371C302.152 20.7215 302.409 20.5483 302.623 20.3284C302.837 20.1084 303.003 19.8465 303.11 19.5592C303.218 19.2719 303.265 18.9654 303.248 18.659Z" fill="#DAC5A7"/>
<path d="M307.603 11.056C307.603 10.7036 307.708 10.3591 307.904 10.066C308.1 9.77298 308.378 9.54457 308.704 9.4097C309.029 9.27482 309.387 9.23953 309.733 9.30829C310.079 9.37705 310.396 9.54677 310.646 9.79599C310.895 10.0452 311.064 10.3627 311.133 10.7084C311.202 11.0541 311.167 11.4124 311.032 11.738C310.897 12.0636 310.669 12.3419 310.375 12.5377C310.082 12.7335 309.738 12.8381 309.385 12.8381C308.914 12.8334 308.464 12.6441 308.131 12.3109C307.797 11.9777 307.608 11.5272 307.603 11.056ZM307.903 13.709H310.874V23.609H307.899L307.903 13.709Z" fill="#DAC5A7"/>
<path d="M323.698 18.659C323.733 19.3133 323.637 19.9679 323.418 20.5852C323.198 21.2025 322.859 21.7703 322.419 22.256C321.979 22.7416 321.448 23.1356 320.855 23.4152C320.263 23.6947 319.621 23.8544 318.966 23.885C318.416 23.915 317.866 23.8222 317.356 23.6133C316.846 23.4043 316.389 23.0845 316.017 22.677V27.568H313.047V13.709H316.017V14.639C316.389 14.2318 316.846 13.9122 317.356 13.7035C317.866 13.4947 318.416 13.402 318.966 13.432C319.621 13.4625 320.263 13.6221 320.856 13.9017C321.449 14.1813 321.98 14.5753 322.42 15.0611C322.86 15.5469 323.199 16.1149 323.418 16.7324C323.638 17.3498 323.733 18.0046 323.698 18.659ZM320.728 18.659C320.717 18.1957 320.569 17.7461 320.303 17.3664C320.037 16.9868 319.665 16.694 319.234 16.5248C318.802 16.3555 318.33 16.3172 317.877 16.4148C317.424 16.5123 317.01 16.7413 316.686 17.0731C316.363 17.405 316.144 17.8248 316.058 18.2803C315.972 18.7357 316.022 19.2063 316.202 19.6334C316.382 20.0605 316.684 20.4249 317.071 20.6812C317.457 20.9374 317.91 21.0741 318.373 21.074C318.692 21.0882 319.009 21.0349 319.305 20.9177C319.602 20.8006 319.87 20.6221 320.092 20.3941C320.314 20.166 320.486 19.8936 320.596 19.5946C320.705 19.2956 320.751 18.9767 320.728 18.659Z" fill="#DAC5A7"/>
<path d="M332.863 20.638C332.863 22.915 330.884 23.885 328.746 23.885C327.882 23.9632 327.015 23.7806 326.256 23.3605C325.497 22.9405 324.882 22.3025 324.489 21.529L327.062 20.064C327.167 20.4215 327.39 20.7326 327.696 20.9451C328.001 21.1577 328.371 21.259 328.742 21.232C329.454 21.232 329.811 21.014 329.811 20.619C329.811 19.529 324.94 20.104 324.94 16.679C324.94 14.52 326.762 13.432 328.821 13.432C329.595 13.4075 330.361 13.5911 331.04 13.9636C331.719 14.3362 332.286 14.884 332.681 15.55L330.147 16.916C330.036 16.6567 329.851 16.4358 329.615 16.2809C329.379 16.126 329.103 16.044 328.821 16.045C328.306 16.045 327.989 16.245 327.989 16.599C327.993 17.728 332.863 16.975 332.863 20.638Z" fill="#DAC5A7"/>
<path d="M343.712 13.709V23.609H340.742V22.678C340.399 23.0888 339.964 23.4125 339.472 23.6225C338.98 23.8325 338.446 23.9228 337.912 23.886C335.912 23.886 334.212 22.461 334.212 19.786V13.709H337.182V19.351C337.157 19.5868 337.184 19.8252 337.261 20.0495C337.337 20.2739 337.462 20.4789 337.626 20.6502C337.79 20.8215 337.989 20.955 338.21 21.0415C338.43 21.128 338.667 21.1654 338.904 21.151C339.993 21.151 340.745 20.518 340.745 19.112V13.712L343.712 13.709Z" fill="#DAC5A7"/>
<path d="M360.742 17.53V23.608H357.772V17.787C357.772 16.797 357.297 16.164 356.347 16.164C355.357 16.164 354.802 16.857 354.802 18.025V23.608H351.833V17.787C351.833 16.797 351.358 16.164 350.407 16.164C349.417 16.164 348.863 16.857 348.863 18.025V23.608H345.893V13.708H348.863V14.618C349.171 14.2143 349.575 13.8941 350.038 13.6868C350.502 13.4794 351.01 13.3915 351.516 13.431C352.024 13.4061 352.53 13.5134 352.985 13.7423C353.439 13.9711 353.826 14.3139 354.109 14.737C354.438 14.2943 354.874 13.9423 355.376 13.7139C355.878 13.4855 356.43 13.3882 356.98 13.431C359.253 13.432 360.742 15.055 360.742 17.53Z" fill="#DAC5A7"/>
<path d="M363.254 13.648C364.471 13.648 365.458 12.6612 365.458 11.444C365.458 10.2268 364.471 9.23999 363.254 9.23999C362.037 9.23999 361.05 10.2268 361.05 11.444C361.05 12.6612 362.037 13.648 363.254 13.648Z" fill="#DAC5A7"/>
<g clip-path="url(#clip0_1301_3319)">
<path d="M545.537 1.09375C545.537 1.69781 546.027 2.1875 546.631 2.1875H547.724C548.329 2.1875 548.818 1.69781 548.818 1.09375C548.818 0.489689 548.329 0 547.724 0H546.631C546.027 0 545.537 0.489689 545.537 1.09375Z" fill="#DAC5A7"/>
<path d="M513.818 35H519.131L517.585 33.4532C517.174 33.043 516.618 32.8125 516.038 32.8125H513.818C505.361 32.8125 498.506 25.9569 498.506 17.5C498.506 9.04313 505.361 2.18751 513.818 2.1875H531.318C539.775 2.1875 546.631 9.04313 546.631 17.5C546.631 25.9569 539.775 32.8125 531.318 32.8125H524.772C523.902 32.8125 523.067 32.4668 522.452 31.8515L520.639 30.0393C519.614 29.0137 518.223 28.4375 516.772 28.4375H513.818C507.778 28.4375 502.881 23.5406 502.881 17.5C502.881 11.4593 507.778 6.5625 513.818 6.5625H531.318C537.359 6.5625 542.256 11.4593 542.256 17.5C542.256 23.5406 537.359 28.4375 531.318 28.4375H527.115C526.244 28.4375 525.41 28.0918 524.795 27.4765L522.982 25.6643C521.957 24.6387 520.566 24.0625 519.115 24.0625H513.818C510.194 24.0625 507.256 21.1243 507.256 17.5C507.256 13.8757 510.194 10.9375 513.818 10.9375H531.318C534.943 10.9375 537.881 13.8757 537.881 17.5C537.881 21.0802 535.014 23.9908 531.45 24.0612L531.45 24.0625H529.849C528.979 24.0625 528.144 23.7168 527.529 23.1015L525.717 21.2893C524.875 20.4477 523.788 19.9088 522.623 19.7424L522.568 19.6875H513.818C512.61 19.6875 511.631 18.7081 511.631 17.5C511.631 16.2919 512.61 15.3125 513.818 15.3125H531.318C532.526 15.3125 533.506 16.2919 533.506 17.5C533.506 18.7081 532.526 19.6875 531.318 19.6875H526.943L528.49 21.2343C528.9 21.6445 529.457 21.875 530.037 21.875H531.318C533.734 21.875 535.693 19.9162 535.693 17.5C535.693 15.0838 533.734 13.125 531.318 13.125H513.818C511.402 13.125 509.443 15.0838 509.443 17.5C509.443 19.9162 511.402 21.875 513.818 21.875H521.85C522.72 21.875 523.555 22.2207 524.17 22.836L525.982 24.6482C527.008 25.6738 528.399 26.25 529.849 26.25H531.865V26.2332C536.443 25.9509 540.068 22.1488 540.068 17.5C540.068 12.6676 536.151 8.75 531.318 8.75H513.818C508.986 8.75 505.068 12.6676 505.068 17.5C505.068 22.3325 508.986 26.25 513.818 26.25H519.115C519.986 26.25 520.82 26.5957 521.436 27.211L523.248 29.0232C524.273 30.0488 525.664 30.625 527.115 30.625H531.318C538.567 30.625 544.443 24.7488 544.443 17.5C544.443 10.2512 538.567 4.375 531.318 4.375H513.818C506.569 4.375 500.693 10.2512 500.693 17.5C500.693 24.7488 506.569 30.625 513.818 30.625H516.772C517.643 30.625 518.477 30.9707 519.093 31.586L520.905 33.3982C521.93 34.4238 523.321 35 524.772 35H531.318C540.983 35 548.818 27.165 548.818 17.5C548.818 7.83501 540.983 -8.44939e-07 531.318 0L513.818 3.61606e-06C504.153 4.461e-06 496.318 7.83502 496.318 17.5C496.318 27.165 504.153 35 513.818 35Z" fill="#DAC5A7"/>
</g>
<g clip-path="url(#clip1_1301_3319)">
<path d="M695.909 2.5C692.863 2.5 689.941 3.71005 687.787 5.86396L680.758 12.8934C678.604 15.0473 677.394 17.9686 677.394 21.0147C677.394 27.3579 682.536 32.5 688.879 32.5C691.925 32.5 694.847 31.2899 697.001 29.136L701.863 24.2737C701.863 24.2736 701.863 24.2738 701.863 24.2737L716.03 10.1066C717.059 9.07791 718.454 8.5 719.909 8.5C722.344 8.5 724.409 10.0874 725.125 12.2841L729.596 7.81296C727.556 4.61834 723.98 2.5 719.909 2.5C716.863 2.5 713.941 3.71005 711.787 5.86396L692.758 24.8934C691.729 25.9221 690.334 26.5 688.879 26.5C685.85 26.5 683.394 24.0442 683.394 21.0147C683.394 19.5599 683.972 18.1647 685.001 17.136L692.03 10.1066C693.059 9.07791 694.454 8.5 695.909 8.5C698.344 8.5 700.409 10.0875 701.125 12.2842L705.596 7.81307C703.557 4.6184 699.98 2.5 695.909 2.5Z" fill="#DAC5A7"/>
<path d="M716.758 24.8934C715.729 25.9221 714.334 26.5 712.879 26.5C710.444 26.5 708.379 24.913 707.663 22.7167L703.192 27.1877C705.232 30.3819 708.808 32.5 712.879 32.5C715.925 32.5 718.847 31.2899 721.001 29.136L740.03 10.1066C741.059 9.07791 742.454 8.5 743.909 8.5C746.938 8.5 749.394 10.9558 749.394 13.9853C749.394 15.4401 748.816 16.8353 747.787 17.864L740.758 24.8934C739.729 25.9221 738.334 26.5 736.879 26.5C734.444 26.5 732.379 24.9127 731.663 22.7162L727.192 27.1873C729.232 30.3818 732.808 32.5 736.879 32.5C739.925 32.5 742.847 31.2899 745.001 29.136L752.03 22.1066C754.184 19.9527 755.394 17.0314 755.394 13.9853C755.394 7.64214 750.252 2.5 743.909 2.5C740.863 2.5 737.941 3.71005 735.787 5.86396L716.758 24.8934Z" fill="#DAC5A7"/>
</g>
<path d="M959.663 24.374H954.543V10.686H959.663V24.374ZM955.043 23.874H959.163V11.186H955.043V23.874ZM966.787 24.374H961.77V10.686H972.252C973.753 10.5644 975.249 10.986 976.466 11.874C976.99 12.3533 977.396 12.9472 977.652 13.6093C977.909 14.2714 978.009 14.9838 977.945 15.691C978.02 16.913 977.631 18.1182 976.856 19.066C975.939 20.118 974.413 20.66 972.321 20.679C971.794 20.693 967.845 20.679 966.79 20.679L966.787 24.374ZM962.267 23.874H966.287V20.174H966.538C966.589 20.174 971.716 20.19 972.309 20.174C974.258 20.157 975.659 19.674 976.478 18.731C977.168 17.8734 977.51 16.7881 977.438 15.69C977.499 15.0564 977.414 14.4171 977.189 13.8217C976.963 13.2264 976.604 12.691 976.138 12.257C975.009 11.4471 973.629 11.0669 972.245 11.185H962.27L962.267 23.874ZM971.19 17.604H966.253V13.878H971.223C971.575 13.8293 971.934 13.8704 972.266 13.9975C972.598 14.1246 972.893 14.3336 973.123 14.605C973.331 14.9519 973.43 15.354 973.405 15.758C973.423 16.1331 973.342 16.5065 973.17 16.84C972.933 17.1259 972.626 17.3459 972.279 17.479C971.932 17.6121 971.557 17.6538 971.19 17.6V17.604ZM966.753 17.104H971.19C972.01 17.104 972.518 16.933 972.743 16.581C972.867 16.3251 972.923 16.0417 972.906 15.758C972.928 15.46 972.863 15.1621 972.72 14.9L972.714 14.891C972.476 14.541 972.003 14.378 971.223 14.378H966.753V17.104ZM987.07 24.576C982.58 24.576 979.9 23.461 978.879 21.168C978.712 20.7251 978.598 20.2638 978.541 19.794L978.497 19.506H983.839L983.874 19.716C983.915 19.9292 984.006 20.1299 984.138 20.302C984.349 20.557 985.053 20.985 987.389 20.985C990.197 20.985 990.197 20.492 990.197 20.227C990.197 19.78 989.872 19.627 987.582 19.383L987.147 19.342C986.285 19.261 985.195 19.158 984.697 19.115C980.497 18.735 978.622 17.43 978.622 14.885C978.622 12.212 981.813 10.485 986.752 10.485C990.781 10.485 993.377 11.547 994.466 13.644C994.724 14.1318 994.898 14.66 994.979 15.206L995.014 15.487H989.666L989.644 15.261C989.623 15.0844 989.548 14.9187 989.428 14.787C989.228 14.519 988.596 14.076 986.634 14.076C984.225 14.076 983.893 14.384 983.893 14.716C983.893 15.159 984.654 15.316 987.093 15.577C988.11 15.66 989.745 15.828 990.305 15.896C993.826 16.278 995.397 17.551 995.397 20.025C995.398 22.1 993.953 24.576 987.07 24.576ZM979.081 20.006C979.131 20.3358 979.217 20.659 979.338 20.97C980.268 23.059 982.798 24.076 987.07 24.076C990.642 24.076 994.901 23.376 994.901 20.025C994.901 17.832 993.511 16.746 990.252 16.393C989.692 16.325 988.067 16.158 987.052 16.074C984.452 15.792 983.395 15.642 983.395 14.716C983.395 13.758 984.534 13.576 986.636 13.576C988.297 13.576 989.37 13.876 989.825 14.481C989.949 14.63 990.043 14.8019 990.101 14.987H994.435C994.348 14.6002 994.21 14.2267 994.025 13.876C993.025 11.957 990.582 10.985 986.754 10.985C982.119 10.985 979.124 12.516 979.124 14.885C979.124 17.145 980.805 18.261 984.743 18.617C985.243 18.66 986.332 18.763 987.196 18.845L987.634 18.886C989.761 19.11 990.699 19.25 990.699 20.227C990.699 21.279 989.486 21.485 987.391 21.485C985.453 21.485 984.229 21.194 983.756 20.621C983.61 20.4383 983.5 20.2296 983.432 20.006H979.081ZM1004.9 24.559C999.677 24.559 996.797 22.448 996.797 18.614V10.686H1001.85V18.614C1001.85 19.929 1003.03 20.683 1005.08 20.683C1007.04 20.683 1008.25 19.896 1008.25 18.631V10.686H1013.25V19.034C1013.26 22.545 1010.21 24.559 1004.89 24.559H1004.9ZM997.297 11.186V18.614C997.297 23.352 1002.05 24.059 1004.9 24.059C1007.83 24.059 1012.76 23.406 1012.76 19.034V11.186H1008.76V18.631C1008.76 20.181 1007.32 21.183 1005.08 21.183C1002.75 21.183 1001.36 20.223 1001.36 18.614V11.186H997.297ZM1034.44 24.374H1029.67V18.194L1026.97 24.374H1022.81L1020.13 18.206V24.374H1015.35V10.686H1021.64L1024.91 18.233L1028.34 10.686H1034.45L1034.44 24.374ZM1030.17 23.874H1033.94V11.186H1028.66L1024.9 19.465L1021.31 11.186H1015.85V23.874H1019.63V15.8L1023.13 23.877H1026.63L1030.17 15.812L1030.17 23.874ZM890.024 10.936H885.47V24.124H898.054V20.613H890.024V10.936ZM907.246 10.636C901.433 10.636 898.376 13.391 898.376 17.436C898.376 22.006 901.585 24.324 907.246 24.324C913.478 24.324 916.099 21.636 916.099 17.436C916.099 13.171 913.142 10.634 907.246 10.634V10.636ZM907.229 14.063C907.624 14.0611 908.02 14.0842 908.413 14.132L903.322 19.223C903.081 18.6781 902.963 18.0866 902.978 17.491C902.978 15.422 904.02 14.061 907.229 14.061V14.063ZM907.246 20.951C906.864 20.9527 906.483 20.9313 906.105 20.887L911.205 15.787C911.437 16.3229 911.548 16.9033 911.53 17.487C911.53 19.5 910.57 20.949 907.246 20.949V20.951ZM925.122 19.151H929.809C929.74 19.4763 929.596 19.781 929.389 20.041C928.417 20.8326 927.177 21.2178 925.928 21.116C925.299 21.1833 924.663 21.1146 924.063 20.9146C923.463 20.7147 922.913 20.3881 922.451 19.957C921.977 19.2619 921.752 18.4271 921.812 17.588C921.735 16.7087 921.98 15.8315 922.501 15.119C923.156 14.379 924.265 14.06 925.895 14.06C926.932 13.9741 927.968 14.2405 928.835 14.816C929.108 15.0331 929.312 15.3249 929.423 15.656H933.77C933.738 15.1105 933.607 14.5753 933.383 14.077C932.342 11.96 929.922 10.7 925.807 10.7C922.228 10.7 919.826 11.792 918.499 13.439C917.622 14.6283 917.172 16.0784 917.222 17.555C917.165 19.065 917.603 20.5521 918.47 21.79C919.781 23.49 922.116 24.326 924.922 24.326C926.787 24.4561 928.64 23.9336 930.163 22.848L930.281 24.124H933.892V16.312H925.122V19.151ZM944.141 10.633C938.329 10.633 935.271 13.388 935.271 17.433C935.271 22.003 938.479 24.321 944.141 24.321C950.374 24.321 952.995 21.633 952.995 17.433C952.995 13.171 950.038 10.634 944.141 10.634V10.633ZM944.125 14.06C944.51 14.0588 944.895 14.0809 945.278 14.126L940.207 19.2C939.973 18.6611 939.86 18.0781 939.874 17.491C939.87 15.422 940.916 14.061 944.125 14.061V14.06ZM944.141 20.948C943.749 20.9497 943.358 20.9269 942.97 20.88L948.087 15.762C948.327 16.305 948.443 16.8953 948.424 17.489C948.426 19.5 947.47 20.949 944.141 20.949V20.948Z" fill="#DAC5A7"/>
<g clip-path="url(#clip2_1301_3319)">
<path d="M1180.13 2.78296L1199.36 21.9352V32.2169H1190.39V25.6313L1176.42 11.7206H1173.52V32.2169H1164.55V2.78296H1180.13ZM1190.39 12.9975V2.78296H1199.36V12.9975H1190.39Z" fill="#DAC5A7"/>
</g>
<defs>
<clipPath id="clip0_1301_3319">
<rect width="52.5" height="35" fill="white" transform="translate(496.318)"/>
</clipPath>
<clipPath id="clip1_1301_3319">
<rect width="78" height="30" fill="white" transform="translate(677.394 2.5)"/>
</clipPath>
<clipPath id="clip2_1301_3319">
<rect width="35.4545" height="30" fill="white" transform="translate(1164.55 2.5)"/>
</clipPath>
</defs>
</svg>
